HIERARCHY
ROOT Hips
{
	OFFSET 0.000000 0.000000 0.000000 
	CHANNELS 6 Xposition Yposition Zposition Zrotation Yrotation Xrotation
	JOINT LeftUpLeg
	{
		OFFSET 1.363060 -1.794630 0.839290 
		CHANNELS 3 Zrotation Yrotation Xrotation
		JOINT LeftLeg
		{
			OFFSET 2.448110 -6.726130 0.000000 
			CHANNELS 3 Zrotation Yrotation Xrotation
			JOINT LeftFoot
			{
				OFFSET 2.562200 -7.039590 0.000000 
				CHANNELS 3 Zrotation Yrotation Xrotation
				JOINT LeftToeBase
				{
					OFFSET 0.157640 -0.433110 2.322550 
					CHANNELS 3 Zrotation Yrotation Xrotation
					End Site
					{
						OFFSET 0.000000 0.000000 0.000000 
					}
				}
			}
		}
	}
	JOINT RightUpLeg
	{
		OFFSET -1.305520 -1.794630 0.839290 
		CHANNELS 3 Zrotation Yrotation Xrotation
		JOINT RightLeg
		{
			OFFSET -2.542530 -6.985550 0.000000 
			CHANNELS 3 Zrotation Yrotation Xrotation
			JOINT RightFoot
			{
				OFFSET -2.568260 -7.056230 0.000000 
				CHANNELS 3 Zrotation Yrotation Xrotation
				JOINT RightToeBase
				{
					OFFSET -0.164730 -0.452590 2.363150 
					CHANNELS 3 Zrotation Yrotation Xrotation
					End Site
					{
						OFFSET 0.000000 0.000000 0.000000 
					}
				}
			}
		}
	}
	JOINT Spine
	{
		OFFSET 0.028270 2.035590 -0.193380 
		CHANNELS 3 Zrotation Yrotation Xrotation
		JOINT Spine1
		{
			OFFSET 0.056720 2.048850 -0.042750 
			CHANNELS 3 Zrotation Yrotation Xrotation
			JOINT Neck1
			{
				OFFSET -0.054170 1.746240 0.172020 
				CHANNELS 3 Zrotation Yrotation Xrotation
				JOINT Head
				{
					OFFSET 0.104070 1.761360 -0.123970 
					CHANNELS 3 Zrotation Yrotation Xrotation
					End Site
					{
						OFFSET 0.000000 0.000000 0.000000 
					}
				}
			}
			JOINT LeftArm
			{
				OFFSET 3.362410 1.200890 -0.311210 
				CHANNELS 3 Zrotation Yrotation Xrotation
				JOINT LeftForeArm
				{
					OFFSET 4.983000 -0.000000 -0.000000 
					CHANNELS 3 Zrotation Yrotation Xrotation
					JOINT LeftHand
					{
						OFFSET 3.483560 -0.000000 -0.000000 
						CHANNELS 3 Zrotation Yrotation Xrotation
						JOINT LeftHandIndex1
						{
							OFFSET 0.715260 -0.000000 -0.000000 
							CHANNELS 3 Zrotation Yrotation Xrotation
							End Site
							{
								OFFSET 0.000000 0.000000 0.000000 
							}
						}
					}
				}
			}
			JOINT RightArm
			{
				OFFSET -3.136600 1.374050 -0.404650 
				CHANNELS 3 Zrotation Yrotation Xrotation
				JOINT RightForeArm
				{
					OFFSET -5.241900 -0.000000 -0.000000 
					CHANNELS 3 Zrotation Yrotation Xrotation
					JOINT RightHand
					{
						OFFSET -3.444170 -0.000000 -0.000000 
						CHANNELS 3 Zrotation Yrotation Xrotation
						JOINT RightHandIndex1
						{
							OFFSET -0.622530 -0.000000 -0.000000 
							CHANNELS 3 Zrotation Yrotation Xrotation
							End Site
							{
								OFFSET 0.000000 0.000000 0.000000 
							}
						}
					}
				}
			}
		}
	}
}
MOTION
Frames: 16
Frame Time: 0.041667
-10.208528 17.603302 -15.832241 -155.503239 84.241292 -156.060413 -12.802602 -16.160115 0.965403 -1.459537 7.601291 20.343943 0.211604 6.037316 -18.035209 0.008700 -0.602900 -1.656800 26.646703 -13.718579 8.178157 1.670945 -1.086615 3.527785 -0.050584 -6.721746 -11.288200 -0.250300 -3.219200 8.889700 1.097831 -0.558307 -1.065351 0.740206 -0.567860 -2.737106 3.479337 -4.670555 21.583126 1.472900 -2.142200 15.874200 -93.149360 1.700989 18.620751 12.206320 -23.740832 -3.802976 -0.375867 2.025438 -16.504691 -7.125000 0.000000 0.000000 85.438021 -5.924953 21.594820 -17.276131 29.320409 -4.511901 0.039492 -2.173069 19.360843 7.125000 0.000000 0.000000 
-10.205512 17.602232 -15.839830 -156.124586 84.194297 -156.698405 -12.862413 -16.234878 0.977474 -1.459821 7.615148 20.358635 0.221926 5.973451 -18.038765 0.006100 -0.503800 -1.384200 26.560880 -13.835314 8.223676 1.666079 -1.081587 3.534615 -0.055331 -6.673503 -11.337636 -0.266100 -3.318200 9.165800 1.090066 -0.562214 -1.074870 0.711697 -0.565976 -2.754887 3.417702 -4.659089 21.574136 1.438700 -2.144000 15.869800 -93.194822 1.763238 18.587436 12.244722 -23.782797 -3.809964 -0.376885 2.025937 -16.420151 -7.125000 0.000000 0.000000 85.408618 -6.017813 21.536947 -17.181848 29.223684 -4.487173 0.028441 -2.173472 19.421062 7.125000 0.000000 0.000000 
-10.202594 17.600870 -15.846834 -156.501647 84.138943 -157.099408 -12.906067 -16.330302 1.006275 -1.458517 7.629195 20.383808 0.237267 5.906444 -18.091077 0.002700 -0.336600 -0.924700 26.506686 -13.939306 8.267986 1.663401 -1.078822 3.540236 -0.057033 -6.659912 -11.362253 -0.263300 -3.301300 9.118700 1.066321 -0.542648 -1.082097 0.636842 -0.554983 -2.776605 3.403188 -4.693546 21.573263 1.428000 -2.160700 15.877500 -93.189674 1.803823 18.563780 12.261567 -23.792345 -3.805007 -0.378691 2.024278 -16.290373 -7.125000 0.000000 0.000000 85.410126 -6.133398 21.449482 -17.122046 29.163621 -4.471782 0.022525 -2.174133 19.481648 7.125000 0.000000 0.000000 
-10.200064 17.599411 -15.852768 -156.711540 84.095524 -157.335145 -12.942978 -16.428543 1.051558 -1.458649 7.638814 20.403164 0.252715 5.860844 -18.178721 0.000600 -0.158900 -0.436600 26.471714 -14.015776 8.308307 1.662287 -1.077118 3.544312 -0.056270 -6.672930 -11.363299 -0.247500 -3.201500 8.840300 1.033473 -0.507301 -1.089446 0.543896 -0.537365 -2.806166 3.425814 -4.753579 21.571197 1.435200 -2.183700 15.887200 -93.148230 1.819850 18.526133 12.254097 -23.770006 -3.791450 -0.379175 2.021352 -16.143008 -7.125000 0.000000 0.000000 85.439355 -6.252640 21.332096 -17.078711 29.118973 -4.456221 0.022719 -2.173085 19.570183 7.125000 0.000000 0.000000 
-10.197827 17.598243 -15.857341 -156.868591 84.077580 -157.516054 -12.983259 -16.511875 1.097515 -1.460124 7.647523 20.420626 0.264834 5.846391 -18.279831 0.000000 -0.033000 -0.090600 26.439208 -14.060709 8.341879 1.661636 -1.075118 3.547008 -0.054246 -6.695570 -11.350556 -0.229800 -3.085700 8.517400 1.001120 -0.470511 -1.098244 0.465080 -0.518766 -2.842921 3.468452 -4.810719 21.561441 1.452700 -2.202800 15.891200 -93.096049 1.814074 18.456754 12.227817 -23.726508 -3.775297 -0.376794 2.018528 -16.012458 -7.125000 0.000000 0.000000 85.479869 -6.353703 21.193978 -17.032340 29.067666 -4.433111 0.027699 -2.169111 19.694737 7.125000 0.000000 0.000000 
-10.195978 17.597465 -15.861038 -157.059475 84.086396 -157.722140 -13.030386 -16.563637 1.130958 -1.462884 7.655690 20.433641 0.270918 5.860224 -18.363475 0.000000 0.006900 0.018900 26.397526 -14.078846 8.366457 1.660509 -1.072060 3.548696 -0.052458 -6.711610 -11.335792 -0.219300 -3.014700 8.319700 0.978327 -0.446725 -1.108712 0.424885 -0.505330 -2.881997 3.512432 -4.840351 21.543631 1.472800 -2.210000 15.887100 -93.060625 1.794354 18.347569 12.193376 -23.678336 -3.763316 -0.371245 2.017067 -15.921290 -7.125000 0.000000 0.000000 85.507509 -6.422855 21.057185 -16.971963 28.997830 -4.401135 0.034856 -2.162522 19.833429 7.125000 0.000000 0.000000 
-10.194033 17.596979 -15.864540 -157.301488 84.113214 -157.968107 -13.080191 -16.574389 1.140565 -1.465265 7.664757 20.445405 0.271858 5.883397 -18.407734 0.000000 -0.033100 -0.091000 26.345924 -14.079563 8.380164 1.658625 -1.068101 3.549682 -0.051656 -6.714839 -11.326223 -0.218100 -3.006300 8.296300 0.970555 -0.444010 -1.119887 0.431550 -0.501174 -2.916113 3.541807 -4.831214 21.523166 1.488700 -2.203000 15.878500 -93.060742 1.770948 18.201029 12.162466 -23.640463 -3.759470 -0.363514 2.017525 -15.867360 -7.125000 0.000000 0.000000 85.500302 -6.458393 20.949927 -16.898745 28.911917 -4.365037 0.041711 -2.155278 19.943534 7.125000 0.000000 0.000000 
-10.191892 17.596492 -15.868139 -157.557852 84.144881 -158.217509 -13.123611 -16.544710 1.122104 -1.465202 7.675649 20.460684 0.270667 5.891361 -18.407619 0.000300 -0.115700 -0.317900 26.293129 -14.072158 8.382988 1.656410 -1.064051 3.550112 -0.051412 -6.711216 -11.320974 -0.220800 -3.024900 8.348200 0.977513 -0.460789 -1.130669 0.475118 -0.506207 -2.940194 3.545703 -4.788912 21.507283 1.494300 -2.185200 15.870700 -93.098518 1.752532 18.028016 12.142841 -23.620362 -3.763635 -0.355441 2.019524 -15.826539 -7.125000 0.000000 0.000000 85.448478 -6.468420 20.887403 -16.821530 28.820823 -4.332508 0.046846 -2.150100 19.989383 7.125000 0.000000 0.000000 
-10.189071 17.595811 -15.872225 -157.775103 84.171434 -158.419954 -13.153921 -16.485636 1.081632 -1.462067 7.687907 20.481913 0.271396 5.867323 -18.376235 0.000900 -0.191700 -0.526800 26.249852 -14.062729 8.377351 1.654621 -1.060767 3.550013 -0.050741 -6.714318 -11.313170 -0.217900 -3.005100 8.292800 0.993194 -0.486180 -1.140143 0.533170 -0.515868 -2.953383 3.521136 -4.732904 21.498651 1.485300 -2.164300 15.866300 -93.159378 1.743409 17.847217 12.135743 -23.616482 -3.772237 -0.348960 2.022073 -15.767452 -7.125000 0.000000 0.000000 85.359545 -6.464829 20.858475 -16.748609 28.735536 -4.308966 0.050006 -2.149036 19.969272 7.125000 0.000000 0.000000 
-10.185763 17.595130 -15.876603 -157.928155 84.190098 -158.556236 -13.171442 -16.413168 1.033382 -1.456555 7.699662 20.505428 0.275572 5.813502 -18.333804 0.001300 -0.231600 -0.636400 26.220360 -14.054065 8.368729 1.653783 -1.058523 3.549508 -0.048636 -6.735451 -11.295901 -0.202100 -2.895000 7.986500 1.008847 -0.505011 -1.147972 0.580963 -0.523083 -2.959327 3.473657 -4.687193 21.492698 1.460800 -2.148900 15.861800 -93.217624 1.742086 17.683886 12.137880 -23.621048 -3.780146 -0.345545 2.024048 -15.675366 -7.125000 0.000000 0.000000 85.255597 -6.457207 20.822982 -16.681802 28.659212 -4.295207 0.051376 -2.152207 19.924005 7.125000 0.000000 0.000000 
-10.182067 17.594449 -15.880786 -158.046311 84.206855 -158.662413 -13.184902 -16.340193 0.993680 -1.451225 7.708258 20.523500 0.281962 5.748496 -18.297019 0.001300 -0.236900 -0.651000 26.198528 -14.046013 8.364921 1.653822 -1.056738 3.548930 -0.044924 -6.775347 -11.268105 -0.174900 -2.694000 7.428000 1.016167 -0.504157 -1.153873 0.601251 -0.521299 -2.964226 3.416162 -4.669935 21.479123 1.424700 -2.144300 15.849600 -93.246276 1.742743 17.564277 12.143414 -23.625378 -3.783424 -0.345806 2.024592 -15.562646 -7.125000 0.000000 0.000000 85.161594 -6.451229 20.732326 -16.618942 28.588590 -4.287308 0.051009 -2.157612 19.916690 7.125000 0.000000 0.000000 
-10.178175 17.594255 -15.884288 -158.185927 84.229814 -158.797660 -13.205377 -16.271027 0.974260 -1.448472 7.711783 20.528884 0.287550 5.695695 -18.270396 0.001400 -0.237700 -0.653000 26.172167 -14.038126 8.373679 1.654117 -1.054417 3.548790 -0.040622 -6.821959 -11.236639 -0.145800 -2.460700 6.780600 1.011255 -0.478596 -1.157228 0.591272 -0.507273 -2.973089 3.366211 -4.685907 21.447891 1.386500 -2.151200 15.822100 -93.229216 1.739615 17.509187 12.150100 -23.625885 -3.781371 -0.349502 2.023393 -15.466792 -7.125000 0.000000 0.000000 85.092687 -6.450820 20.561862 -16.560243 28.522561 -4.281240 0.048738 -2.162151 19.990545 7.125000 0.000000 0.000000 
-10.174381 17.594644 -15.886915 -158.379178 84.263507 -158.998174 -13.238012 -16.199393 0.975832 -1.448591 7.710425 20.520633 0.289560 5.666416 -18.244363 0.001700 -0.267800 -0.735700 26.131924 -14.030826 8.398893 1.653918 -1.050880 3.549523 -0.037328 -6.856525 -11.213187 -0.125700 -2.285200 6.294400 0.996526 -0.433866 -1.157499 0.562411 -0.483440 -2.988229 3.341192 -4.725748 21.395409 1.359000 -2.165500 15.778000 -93.166790 1.729860 17.523383 12.160308 -23.626508 -3.776573 -0.355755 2.020735 -15.431789 -7.125000 0.000000 0.000000 85.044599 -6.461478 20.334845 -16.516119 28.468695 -4.275680 0.044834 -2.163055 20.134386 7.125000 0.000000 0.000000 
-10.170879 17.595325 -15.888861 -158.592799 84.302788 -159.230974 -13.276202 -16.112705 0.987845 -1.449354 7.706834 20.507418 0.288209 5.649956 -18.201742 0.002800 -0.341300 -0.937900 26.080061 -14.025710 8.438796 1.652954 -1.046425 3.551219 -0.036308 -6.865165 -11.207641 -0.120400 -2.237100 6.161500 0.979256 -0.383549 -1.154575 0.533128 -0.456777 -3.008125 3.352140 -4.771203 21.328841 1.353900 -2.180700 15.724500 -93.074743 1.716235 17.592281 12.181760 -23.637691 -3.774245 -0.363407 2.017356 -15.483950 -7.125000 0.000000 0.000000 84.995252 -6.490169 20.121430 -16.506626 28.446142 -4.274473 0.040620 -2.159105 20.277876 7.125000 0.000000 0.000000 
-10.167571 17.595908 -15.890223 -158.721083 84.332818 -159.386850 -13.301630 -15.998223 0.991528 -1.445921 7.705735 20.506160 0.286950 5.613127 -18.126529 0.004600 -0.436900 -1.200600 26.032628 -14.025811 8.485617 1.651668 -1.042484 3.553507 -0.037863 -6.847155 -11.221425 -0.129900 -2.323400 6.400200 0.968833 -0.344998 -1.149173 0.519613 -0.436865 -3.029899 3.398273 -4.803575 21.264570 1.375800 -2.191100 15.675800 -92.976342 1.706519 17.683628 12.224159 -23.671947 -3.779549 -0.371450 2.014096 -15.617231 -7.125000 0.000000 0.000000 84.916014 -6.541913 20.005754 -16.551977 28.475359 -4.283910 0.038497 -2.151013 20.327534 7.125000 0.000000 0.000000 
-10.164458 17.596006 -15.891779 -158.635122 84.335209 -159.332411 -13.291815 -15.850705 0.967345 -1.433246 7.712008 20.535507 0.291159 5.514997 -18.012194 0.006100 -0.504600 -1.386600 26.012564 -14.034373 8.528232 1.651056 -1.040987 3.555685 -0.040639 -6.816688 -11.246327 -0.148100 -2.480200 6.834900 0.972355 -0.331589 -1.143083 0.528250 -0.431611 -3.051088 3.466018 -4.811332 21.221166 1.419600 -2.193600 15.646900 -92.891416 1.711025 17.759597 12.295998 -23.739106 -3.796005 -0.379261 2.011527 -15.795847 -7.125000 0.000000 0.000000 84.787573 -6.611109 20.034320 -16.658239 28.562990 -4.307794 0.040908 -2.140843 20.226662 7.125000 0.000000 0.000000 
